<mxfile host="app.diagrams.net" modified="2022-02-07T11:58:10.871Z" agent="5.0 (Windows NT 10.0; Win64; x64) AppleWebKit/537.36 (KHTML, like Gecko) Chrome/97.0.4692.99 Safari/537.36" etag="7PJVATGvY991F23o9d8q" version="16.5.3" type="github">
  <diagram id="4UVPahDyf4iu8To8ODbl" name="Page-1">
    <mxGraphModel dx="763" dy="403" grid="1" gridSize="10" guides="1" tooltips="1" connect="1" arrows="1" fold="1" page="1" pageScale="1" pageWidth="827" pageHeight="1169" math="0" shadow="0">
      <root>
        <mxCell id="0" />
        <mxCell id="1" parent="0" />
        <mxCell id="TSUCbPAbVoKPbsh4vDsl-1" value="File Upload" style="rounded=0;whiteSpace=wrap;html=1;" parent="1" vertex="1">
          <mxGeometry x="362" y="32" width="120" height="70" as="geometry" />
        </mxCell>
        <mxCell id="TSUCbPAbVoKPbsh4vDsl-2" value="Attente&lt;br&gt;&amp;nbsp; puis Rapport&lt;br&gt;de Vérification du fichier&amp;nbsp; &amp;nbsp; &amp;nbsp; &amp;nbsp;&amp;nbsp;" style="rounded=0;whiteSpace=wrap;html=1;" parent="1" vertex="1">
          <mxGeometry x="361" y="130" width="120" height="70" as="geometry" />
        </mxCell>
        <mxCell id="TSUCbPAbVoKPbsh4vDsl-3" value="&lt;div&gt;&lt;span&gt;Afficher rapports&lt;/span&gt;&lt;/div&gt;(Analyse +&amp;nbsp;Import à 0)&lt;br&gt;+ Télécharger Excel ParseResults" style="rounded=0;whiteSpace=wrap;html=1;align=center;" parent="1" vertex="1">
          <mxGeometry x="258" y="507" width="150" height="80" as="geometry" />
        </mxCell>
        <mxCell id="TSUCbPAbVoKPbsh4vDsl-4" value="Afficher r&lt;span&gt;apports&lt;/span&gt;&lt;br&gt;&lt;div&gt;&lt;/div&gt;(Analyse +&amp;nbsp;Imports)&lt;br&gt;+ Télécharger Excel ImportResults" style="rounded=0;whiteSpace=wrap;html=1;align=center;" parent="1" vertex="1">
          <mxGeometry x="460" y="507" width="150" height="80" as="geometry" />
        </mxCell>
        <mxCell id="TSUCbPAbVoKPbsh4vDsl-7" value="❌&lt;b&gt;Rejet&lt;/b&gt;&lt;br&gt;(Fin 1)" style="ellipse;whiteSpace=wrap;html=1;aspect=fixed;fillColor=#ffe6cc;strokeColor=#d79b00;" parent="1" vertex="1">
          <mxGeometry x="630" y="155" width="80" height="80" as="geometry" />
        </mxCell>
        <mxCell id="TSUCbPAbVoKPbsh4vDsl-9" value="❌Fichier Non valide&amp;nbsp;" style="endArrow=classic;html=1;rounded=0;entryX=0;entryY=0.5;entryDx=0;entryDy=0;exitX=1;exitY=0.5;exitDx=0;exitDy=0;" parent="1" source="HX-YwnKvqhDAjYfnIiUI-18" target="TSUCbPAbVoKPbsh4vDsl-7" edge="1">
          <mxGeometry x="0.0471" relative="1" as="geometry">
            <mxPoint x="490" y="170" as="sourcePoint" />
            <mxPoint x="590" y="169.5" as="targetPoint" />
            <Array as="points" />
            <mxPoint as="offset" />
          </mxGeometry>
        </mxCell>
        <mxCell id="TSUCbPAbVoKPbsh4vDsl-19" value="✅Format Excel Valide" style="endArrow=classic;html=1;rounded=0;startArrow=none;exitX=0.5;exitY=1;exitDx=0;exitDy=0;" parent="1" source="HX-YwnKvqhDAjYfnIiUI-19" edge="1">
          <mxGeometry x="0.1429" relative="1" as="geometry">
            <mxPoint x="420" y="200" as="sourcePoint" />
            <mxPoint x="421" y="250" as="targetPoint" />
            <mxPoint as="offset" />
            <Array as="points">
              <mxPoint x="421" y="210" />
            </Array>
          </mxGeometry>
        </mxCell>
        <mxCell id="TSUCbPAbVoKPbsh4vDsl-23" value="Option : &quot;Remplacer les saisies existantes ?&quot; Oui/Non&lt;br&gt;&amp;nbsp;" style="rounded=0;whiteSpace=wrap;html=1;" parent="1" vertex="1">
          <mxGeometry x="360" y="248" width="130" height="60" as="geometry" />
        </mxCell>
        <mxCell id="TSUCbPAbVoKPbsh4vDsl-24" value="&lt;font style=&quot;font-size: 12px&quot;&gt;Import Excel&lt;br&gt;100% OK ?&lt;/font&gt;" style="rhombus;whiteSpace=wrap;html=1;" parent="1" vertex="1">
          <mxGeometry x="380" y="420" width="80" height="80" as="geometry" />
        </mxCell>
        <mxCell id="TSUCbPAbVoKPbsh4vDsl-26" value="Attente&lt;br&gt;(Traitement en cours)" style="rounded=0;whiteSpace=wrap;html=1;" parent="1" vertex="1">
          <mxGeometry x="360" y="340" width="120" height="60" as="geometry" />
        </mxCell>
        <mxCell id="TSUCbPAbVoKPbsh4vDsl-27" value="" style="endArrow=classic;html=1;rounded=0;exitX=0.5;exitY=1;exitDx=0;exitDy=0;" parent="1" source="HX-YwnKvqhDAjYfnIiUI-23" edge="1">
          <mxGeometry width="50" height="50" relative="1" as="geometry">
            <mxPoint x="540" y="320" as="sourcePoint" />
            <mxPoint x="420" y="340" as="targetPoint" />
            <Array as="points">
              <mxPoint x="420" y="310" />
            </Array>
          </mxGeometry>
        </mxCell>
        <mxCell id="TSUCbPAbVoKPbsh4vDsl-30" value="✅&lt;b&gt;Succès&lt;/b&gt;&lt;br&gt;(Fin 3)" style="ellipse;whiteSpace=wrap;html=1;aspect=fixed;fillColor=#ffe6cc;strokeColor=#d79b00;" parent="1" vertex="1">
          <mxGeometry x="710" y="590.5" width="80" height="80" as="geometry" />
        </mxCell>
        <mxCell id="TSUCbPAbVoKPbsh4vDsl-31" value="&lt;b&gt;&amp;nbsp; &amp;nbsp; &amp;nbsp;À corriger&lt;/b&gt;&lt;br&gt;(Fin 2)" style="ellipse;whiteSpace=wrap;html=1;aspect=fixed;fillColor=#ffe6cc;strokeColor=#d79b00;" parent="1" vertex="1">
          <mxGeometry x="100" y="590.5" width="80" height="80" as="geometry" />
        </mxCell>
        <mxCell id="TSUCbPAbVoKPbsh4vDsl-34" value="" style="endArrow=classic;html=1;rounded=0;exitX=0.5;exitY=1;exitDx=0;exitDy=0;entryX=0.5;entryY=0;entryDx=0;entryDy=0;" parent="1" source="TSUCbPAbVoKPbsh4vDsl-26" target="TSUCbPAbVoKPbsh4vDsl-24" edge="1">
          <mxGeometry width="50" height="50" relative="1" as="geometry">
            <mxPoint x="140" y="440" as="sourcePoint" />
            <mxPoint x="190" y="390" as="targetPoint" />
          </mxGeometry>
        </mxCell>
        <mxCell id="TSUCbPAbVoKPbsh4vDsl-36" value="" style="endArrow=classic;html=1;rounded=0;strokeColor=#006600;entryX=0.31;entryY=0.001;entryDx=0;entryDy=0;entryPerimeter=0;" parent="1" target="TSUCbPAbVoKPbsh4vDsl-4" edge="1">
          <mxGeometry relative="1" as="geometry">
            <mxPoint x="460" y="460" as="sourcePoint" />
            <mxPoint x="505" y="500" as="targetPoint" />
            <Array as="points">
              <mxPoint x="490" y="460" />
              <mxPoint x="507" y="460" />
            </Array>
          </mxGeometry>
        </mxCell>
        <mxCell id="TSUCbPAbVoKPbsh4vDsl-37" value="OUI ✅" style="edgeLabel;resizable=0;html=1;align=center;verticalAlign=middle;fontColor=#006600;" parent="TSUCbPAbVoKPbsh4vDsl-36" connectable="0" vertex="1">
          <mxGeometry relative="1" as="geometry">
            <mxPoint x="-22" y="-13" as="offset" />
          </mxGeometry>
        </mxCell>
        <mxCell id="TSUCbPAbVoKPbsh4vDsl-45" value="" style="endArrow=classic;html=1;rounded=0;exitX=0;exitY=0.5;exitDx=0;exitDy=0;strokeColor=#CC0000;entryX=0.5;entryY=0;entryDx=0;entryDy=0;" parent="1" source="TSUCbPAbVoKPbsh4vDsl-24" target="TSUCbPAbVoKPbsh4vDsl-3" edge="1">
          <mxGeometry relative="1" as="geometry">
            <mxPoint x="360" y="360" as="sourcePoint" />
            <mxPoint x="336" y="500" as="targetPoint" />
            <Array as="points">
              <mxPoint x="333" y="460" />
            </Array>
          </mxGeometry>
        </mxCell>
        <mxCell id="TSUCbPAbVoKPbsh4vDsl-46" value="NON❌" style="edgeLabel;resizable=0;html=1;align=center;verticalAlign=middle;fontColor=#CC0000;" parent="TSUCbPAbVoKPbsh4vDsl-45" connectable="0" vertex="1">
          <mxGeometry relative="1" as="geometry">
            <mxPoint x="21" y="-13" as="offset" />
          </mxGeometry>
        </mxCell>
        <mxCell id="PQ5lRCYeLyrYNy7Ynxfq-3" value="" style="endArrow=classic;html=1;rounded=0;entryX=0;entryY=0.5;entryDx=0;entryDy=0;exitX=0.5;exitY=1;exitDx=0;exitDy=0;" parent="1" source="HX-YwnKvqhDAjYfnIiUI-17" target="TSUCbPAbVoKPbsh4vDsl-30" edge="1">
          <mxGeometry relative="1" as="geometry">
            <mxPoint x="610" y="546" as="sourcePoint" />
            <mxPoint x="680" y="546" as="targetPoint" />
            <Array as="points">
              <mxPoint x="590" y="631" />
            </Array>
          </mxGeometry>
        </mxCell>
        <mxCell id="PQ5lRCYeLyrYNy7Ynxfq-4" value="Import&lt;br&gt;réalisé à 100%" style="edgeLabel;resizable=0;html=1;align=center;verticalAlign=middle;fillColor=#B9E0A5;" parent="PQ5lRCYeLyrYNy7Ynxfq-3" connectable="0" vertex="1">
          <mxGeometry relative="1" as="geometry">
            <mxPoint x="14" as="offset" />
          </mxGeometry>
        </mxCell>
        <mxCell id="PQ5lRCYeLyrYNy7Ynxfq-16" value="" style="endArrow=classic;html=1;rounded=0;entryX=1;entryY=0.5;entryDx=0;entryDy=0;" parent="1" target="TSUCbPAbVoKPbsh4vDsl-31" edge="1">
          <mxGeometry relative="1" as="geometry">
            <mxPoint x="389" y="590" as="sourcePoint" />
            <mxPoint x="160" y="620" as="targetPoint" />
            <Array as="points">
              <mxPoint x="389" y="631" />
            </Array>
          </mxGeometry>
        </mxCell>
        <mxCell id="PQ5lRCYeLyrYNy7Ynxfq-17" value="Aucun import" style="edgeLabel;resizable=0;html=1;align=center;verticalAlign=middle;fillColor=#B9E0A5;" parent="PQ5lRCYeLyrYNy7Ynxfq-16" connectable="0" vertex="1">
          <mxGeometry relative="1" as="geometry">
            <mxPoint x="-26" as="offset" />
          </mxGeometry>
        </mxCell>
        <mxCell id="NqZcQhGpQadG-bkUrXEM-7" value="" style="endArrow=classic;html=1;rounded=0;entryX=0.5;entryY=0;entryDx=0;entryDy=0;" parent="1" target="TSUCbPAbVoKPbsh4vDsl-2" edge="1">
          <mxGeometry x="-0.0519" y="1" relative="1" as="geometry">
            <mxPoint x="421" y="100" as="sourcePoint" />
            <mxPoint x="417" y="140" as="targetPoint" />
            <Array as="points" />
            <mxPoint as="offset" />
          </mxGeometry>
        </mxCell>
        <mxCell id="HX-YwnKvqhDAjYfnIiUI-5" value="" style="endArrow=none;html=1;rounded=0;" parent="1" edge="1">
          <mxGeometry x="-0.1667" relative="1" as="geometry">
            <mxPoint x="420" y="210" as="sourcePoint" />
            <mxPoint x="420" y="210" as="targetPoint" />
            <mxPoint as="offset" />
          </mxGeometry>
        </mxCell>
        <mxCell id="HX-YwnKvqhDAjYfnIiUI-16" value="&lt;font size=&quot;1&quot;&gt;&lt;b style=&quot;font-size: 7px&quot;&gt;Terminer&lt;/b&gt;&lt;/font&gt;" style="rounded=1;whiteSpace=wrap;html=1;strokeWidth=2;verticalAlign=bottom;fillColor=#dae8fc;strokeColor=#999999;fontColor=#3399FF;" parent="1" vertex="1">
          <mxGeometry x="370" y="573.5" width="38" height="17" as="geometry" />
        </mxCell>
        <mxCell id="HX-YwnKvqhDAjYfnIiUI-17" value="&lt;font size=&quot;1&quot;&gt;&lt;b style=&quot;font-size: 7px&quot;&gt;Terminer&lt;/b&gt;&lt;/font&gt;" style="rounded=1;whiteSpace=wrap;html=1;strokeWidth=2;verticalAlign=bottom;fillColor=#dae8fc;strokeColor=#999999;fontColor=#3399FF;" parent="1" vertex="1">
          <mxGeometry x="570" y="573.5" width="40" height="17" as="geometry" />
        </mxCell>
        <mxCell id="HX-YwnKvqhDAjYfnIiUI-18" value="&lt;font size=&quot;1&quot;&gt;&lt;b style=&quot;font-size: 7px&quot;&gt;Terminer&lt;/b&gt;&lt;/font&gt;" style="rounded=1;whiteSpace=wrap;html=1;strokeWidth=2;verticalAlign=bottom;fillColor=#dae8fc;strokeColor=#999999;fontColor=#3399FF;" parent="1" vertex="1">
          <mxGeometry x="460" y="186.5" width="40" height="17" as="geometry" />
        </mxCell>
        <mxCell id="HX-YwnKvqhDAjYfnIiUI-19" value="&lt;font&gt;&lt;b&gt;&lt;font style=&quot;font-size: 7px&quot;&gt;Suivant&lt;/font&gt;&lt;br&gt;&lt;/b&gt;&lt;/font&gt;" style="rounded=1;whiteSpace=wrap;html=1;strokeWidth=2;verticalAlign=bottom;fillColor=#dae8fc;strokeColor=#999999;fontColor=#3399FF;" parent="1" vertex="1">
          <mxGeometry x="430" y="186.5" width="30" height="17" as="geometry" />
        </mxCell>
        <mxCell id="HX-YwnKvqhDAjYfnIiUI-23" value="&lt;font style=&quot;font-size: 7px&quot;&gt;&lt;b style=&quot;font-size: 7px&quot;&gt;Importer&lt;br style=&quot;font-size: 7px&quot;&gt;&lt;/b&gt;&lt;/font&gt;" style="rounded=1;whiteSpace=wrap;html=1;strokeWidth=2;verticalAlign=middle;fillColor=#dae8fc;strokeColor=#999999;fontColor=#3399FF;fontSize=7;" parent="1" vertex="1">
          <mxGeometry x="395" y="295" width="55" height="17" as="geometry" />
        </mxCell>
        <mxCell id="HX-YwnKvqhDAjYfnIiUI-24" value="&lt;font size=&quot;1&quot;&gt;&lt;b style=&quot;font-size: 7px&quot;&gt;(Auto)&lt;/b&gt;&lt;/font&gt;" style="rounded=1;html=1;strokeWidth=2;verticalAlign=bottom;fillColor=#dae8fc;strokeColor=#999999;fontColor=#3399FF;horizontal=1;" parent="1" vertex="1">
          <mxGeometry x="391" y="90" width="63" height="17" as="geometry" />
        </mxCell>
        <mxCell id="Jls3OtoX2Lpwt2niCwrY-1" value="" style="shape=image;verticalLabelPosition=bottom;verticalAlign=top;imageAspect=0;aspect=fixed;image=data:image/svg+xml,PHN2ZyB4bWxucz0iaHR0cDovL3d3dy53My5vcmcvMjAwMC9zdmciIHdpZHRoPSI0OCIgaGVpZ2h0PSI0OCIgdmlld0JveD0iMCAwIDQ4IDQ4Ij4KICAgIDxwYXRoIGZpbGwtb3BhY2l0eT0iLjkiIGQ9Ik0yMy45OSA0Yy0xMS4wNSAwLTE5Ljk5IDguOTUtMTkuOTkgMjBzOC45NCAyMCAxOS45OSAyMGMxMS4wNSAwIDIwLjAxLTguOTUgMjAuMDEtMjBzLTguOTYtMjAtMjAuMDEtMjB6bS4wMSAzNmMtOC44NCAwLTE2LTcuMTYtMTYtMTZzNy4xNi0xNiAxNi0xNiAxNiA3LjE2IDE2IDE2LTcuMTYgMTYtMTYgMTZ6Ii8+CiAgICA8cGF0aCBkPSJNMCAwaDQ4djQ4aC00OHoiIGZpbGw9Im5vbmUiLz4KICAgIDxwYXRoIGZpbGwtb3BhY2l0eT0iLjkiIGQ9Ik0yNSAxNGgtM3YxMmwxMC40OSA2LjMgMS41MS0yLjQ2LTktNS4zNHoiLz4KPC9zdmc+" parent="1" vertex="1">
          <mxGeometry x="361" y="130" width="20" height="20" as="geometry" />
        </mxCell>
        <mxCell id="Jls3OtoX2Lpwt2niCwrY-2" value="" style="shape=image;verticalLabelPosition=bottom;verticalAlign=top;imageAspect=0;aspect=fixed;image=data:image/svg+xml,PHN2ZyB4bWxucz0iaHR0cDovL3d3dy53My5vcmcvMjAwMC9zdmciIHdpZHRoPSI0OCIgaGVpZ2h0PSI0OCIgdmlld0JveD0iMCAwIDQ4IDQ4Ij4KICAgIDxwYXRoIGZpbGwtb3BhY2l0eT0iLjkiIGQ9Ik0yMy45OSA0Yy0xMS4wNSAwLTE5Ljk5IDguOTUtMTkuOTkgMjBzOC45NCAyMCAxOS45OSAyMGMxMS4wNSAwIDIwLjAxLTguOTUgMjAuMDEtMjBzLTguOTYtMjAtMjAuMDEtMjB6bS4wMSAzNmMtOC44NCAwLTE2LTcuMTYtMTYtMTZzNy4xNi0xNiAxNi0xNiAxNiA3LjE2IDE2IDE2LTcuMTYgMTYtMTYgMTZ6Ii8+CiAgICA8cGF0aCBkPSJNMCAwaDQ4djQ4aC00OHoiIGZpbGw9Im5vbmUiLz4KICAgIDxwYXRoIGZpbGwtb3BhY2l0eT0iLjkiIGQ9Ik0yNSAxNGgtM3YxMmwxMC40OSA2LjMgMS41MS0yLjQ2LTktNS4zNHoiLz4KPC9zdmc+" parent="1" vertex="1">
          <mxGeometry x="360" y="340" width="20" height="20" as="geometry" />
        </mxCell>
        <mxCell id="DMQDrrK3bXKj25TeuVYA-2" value="" style="shape=image;verticalLabelPosition=bottom;verticalAlign=top;imageAspect=0;aspect=fixed;image=data:image/svg+xml,PHN2ZyB4bWxucz0iaHR0cDovL3d3dy53My5vcmcvMjAwMC9zdmciIHdpZHRoPSI0OCIgaGVpZ2h0PSI0OCIgdmlld0JveD0iMCAwIDQ4IDQ4Ij4KICAgIDxwYXRoIGQ9Ik0wIDBoNDh2NDhoLTQ4eiIgZmlsbD0ibm9uZSIvPgogICAgPHBhdGggZD0iTTI0IDRjLTExLjA1IDAtMjAgOC45NS0yMCAyMHM4Ljk1IDIwIDIwIDIwIDIwLTguOTUgMjAtMjAtOC45NS0yMC0yMC0yMHptLTE2IDIwYzAtOC44NCA3LjE2LTE2IDE2LTE2IDMuNyAwIDcuMDkgMS4yNyA5LjggMy4zN2wtMjIuNDMgMjIuNDNjLTIuMS0yLjcxLTMuMzctNi4xLTMuMzctOS44em0xNiAxNmMtMy43IDAtNy4wOS0xLjI3LTkuOC0zLjM3bDIyLjQzLTIyLjQzYzIuMSAyLjcxIDMuMzcgNi4xIDMuMzcgOS44IDAgOC44NC03LjE2IDE2LTE2IDE2eiIvPgo8L3N2Zz4=;imageBackground=none;labelBorderColor=none;sketch=0;" parent="1" vertex="1">
          <mxGeometry x="101" y="611" width="20" height="20" as="geometry" />
        </mxCell>
        <mxCell id="djonJGLYD7yaMhUm2BC5-6" value="" style="group" vertex="1" connectable="0" parent="1">
          <mxGeometry x="500" y="260" width="310" height="36" as="geometry" />
        </mxCell>
        <mxCell id="DMQDrrK3bXKj25TeuVYA-6" value="&lt;p style=&quot;font-size: 9px&quot;&gt;&lt;i&gt;&amp;nbsp; &amp;nbsp; &amp;nbsp; &amp;nbsp; &amp;nbsp;Ne poser la question que si la grille web contient au moins 1 saisie&amp;nbsp;&lt;br&gt;&lt;/i&gt;&lt;i&gt;(&amp;gt;= 1 ligne avec le statut &#39;En cours&#39; existe)&lt;/i&gt;&lt;/p&gt;" style="whiteSpace=wrap;html=1;align=center;labelBorderColor=none;sketch=0;" parent="djonJGLYD7yaMhUm2BC5-6" vertex="1">
          <mxGeometry width="310" height="36" as="geometry" />
        </mxCell>
        <mxCell id="djonJGLYD7yaMhUm2BC5-10" value="" style="shape=image;verticalLabelPosition=bottom;verticalAlign=top;imageAspect=0;aspect=fixed;image=data:image/svg+xml,PHN2ZyB4bWxucz0iaHR0cDovL3d3dy53My5vcmcvMjAwMC9zdmciIHdpZHRoPSI0OCIgaGVpZ2h0PSI0OCIgdmlld0JveD0iMCAwIDQ4IDQ4Ij4KICAgIDxwYXRoIGQ9Ik0wIDBoNDh2NDhoLTQ4eiIgZmlsbD0ibm9uZSIvPgogICAgPHBhdGggZD0iTTIgNDJoNDRsLTIyLTM4LTIyIDM4em0yNC02aC00di00aDR2NHptMC04aC00di04aDR2OHoiLz4KPC9zdmc+" vertex="1" parent="djonJGLYD7yaMhUm2BC5-6">
          <mxGeometry x="4" y="5" width="26" height="26" as="geometry" />
        </mxCell>
        <mxCell id="djonJGLYD7yaMhUm2BC5-7" value="" style="group" vertex="1" connectable="0" parent="1">
          <mxGeometry x="490" y="54" width="230" height="36" as="geometry" />
        </mxCell>
        <mxCell id="djonJGLYD7yaMhUm2BC5-8" value="&lt;p&gt;&lt;i&gt;&lt;font size=&quot;1&quot;&gt;La fin du transfert de fichier ...&lt;br&gt;lance automatiquement la Vérification&lt;/font&gt;&lt;/i&gt;&lt;/p&gt;" style="whiteSpace=wrap;html=1;align=center;labelBorderColor=none;sketch=0;" vertex="1" parent="djonJGLYD7yaMhUm2BC5-7">
          <mxGeometry width="230" height="36" as="geometry" />
        </mxCell>
        <mxCell id="djonJGLYD7yaMhUm2BC5-9" value="" style="shape=image;verticalLabelPosition=bottom;verticalAlign=top;imageAspect=0;aspect=fixed;image=data:image/svg+xml,PHN2ZyB4bWxucz0iaHR0cDovL3d3dy53My5vcmcvMjAwMC9zdmciIHdpZHRoPSI0OCIgaGVpZ2h0PSI0OCIgdmlld0JveD0iMCAwIDQ4IDQ4Ij4KICAgIDxwYXRoIGQ9Ik0wIDBoNDh2NDhoLTQ4eiIgZmlsbD0ibm9uZSIvPgogICAgPHBhdGggZD0iTTIyIDM0aDR2LTEyaC00djEyem0yLTMwYy0xMS4wNSAwLTIwIDguOTUtMjAgMjBzOC45NSAyMCAyMCAyMCAyMC04Ljk1IDIwLTIwLTguOTUtMjAtMjAtMjB6bTAgMzZjLTguODIgMC0xNi03LjE4LTE2LTE2czcuMTgtMTYgMTYtMTYgMTYgNy4xOCAxNiAxNi03LjE4IDE2LTE2IDE2em0tMi0yMmg0di00aC00djR6Ii8+Cjwvc3ZnPg==" vertex="1" parent="djonJGLYD7yaMhUm2BC5-7">
          <mxGeometry x="0.74" y="5.5" width="24.5" height="24.5" as="geometry" />
        </mxCell>
      </root>
    </mxGraphModel>
  </diagram>
</mxfile>
